<?xml version="1.0" encoding="UTF-8"?> <svg xmlns="http://www.w3.org/2000/svg" xmlns:xlink="http://www.w3.org/1999/xlink" height="37" viewBox="0 0 270 37" width="270"><mask id="a" fill="#fff"><path d="m.012.7651h9.889v35.2349h-9.889z" fill="#fff" fill-rule="evenodd"></path></mask><mask id="b" fill="#fff"><path d="m0 36h269.864v-35.235h-269.864z" fill="#fff" fill-rule="evenodd"></path></mask><g fill="none" fill-rule="evenodd"><path d="m58.209 35.9444h.5v-34.656h-.5z" fill="#fefefe"></path><path d="m34.1298 1.2884-9.898 13.662-9.893-13.662h-14.339v9.742h3.699v15.17h-3.699v9.744h18.254v-9.744h-3.947v-9.868l9.925 13.565 9.926-13.565v9.868h-3.945v9.744h18.251v-9.744h-3.7v-15.17h3.7v-9.742z" fill="#ffcb05"></path><g fill="#fefefe"><path d="m68.5809 1.2884v34.659h8.4v-2.688h-5.232v-13.969h4.993v-2.688h-4.993v-12.626h5.232v-2.688z"></path><g transform="translate(0 .2354)"><path d="m6.733 5.6611c0-1.488-.528-2.208-1.776-2.208s-1.777.72-1.777 2.208v25.442c0 1.489.529 2.208 1.777 2.208s1.776-.719 1.776-2.208v-4.848h3.168v4.945c0 2.928-1.632 4.8-4.944 4.8-3.313 0-4.945-1.872-4.945-4.8v-25.635c0-2.928 1.632-4.8 4.945-4.8 3.312 0 4.944 1.872 4.944 4.8v4.56h-3.168z" mask="url(#a)" transform="translate(81)"></path><path d="m94.356 1.0527h8.4v2.688h-5.232v12.625h4.993v2.689h-4.993v13.969h5.232v2.688h-8.4z"></path><path d="m108.5753 11.9067v-10.83h5.58v1.201h-4.2v3.479h3.9v1.2h-3.9v3.75h4.29v1.2z"></path><path d="m116.3184 11.9067v-10.83h1.38v9.63h3.975v1.2z"></path><path d="m123.4849 11.9067v-10.83h5.58v1.201h-4.2v3.479h3.9v1.2h-3.9v3.75h4.29v1.2z"></path><path d="m135.8614 4.062c.015-.615-.03-1.23-.315-1.575s-.93-.465-1.215-.465c-1.14 0-1.59.69-1.635.84-.045.12-.315.39-.315 2.25v2.895c0 2.655.87 2.97 1.935 2.97.42 0 1.695-.15 1.71-2.265h1.425c.06 3.42-2.355 3.42-3.06 3.42-1.35 0-3.42-.091-3.42-4.29v-3.06c0-3.06 1.35-3.93 3.48-3.93 2.145 0 2.97 1.11 2.835 3.21z"></path><path d="m146.0357 1.0771v1.2h-2.85v9.63h-1.379v-9.63h-2.851v-1.2z"></path><path d="m149.273 5.7271h2.07c.991 0 1.47-.855 1.47-1.8 0-.78-.39-1.65-1.455-1.65h-2.085zm0 1.2v4.98h-1.38v-10.83h3.735c1.92 0 2.594 1.35 2.594 2.7 0 1.275-.705 2.25-1.979 2.475v.03c1.245.195 1.694.615 1.77 2.79.015.465.164 2.16.375 2.835h-1.44c-.39-.75-.3-2.16-.42-3.6-.105-1.32-1.17-1.38-1.635-1.38z"></path><path d="m156.574 11.907h1.38v-10.83h-1.38z" mask="url(#b)"></path><path d="m165.2945 4.062c.016-.615-.03-1.23-.314-1.575-.286-.345-.931-.465-1.216-.465-1.14 0-1.59.69-1.635.84-.045.12-.315.39-.315 2.25v2.895c0 2.655.871 2.97 1.935 2.97.42 0 1.695-.15 1.71-2.265h1.425c.06 3.42-2.356 3.42-3.061 3.42-1.349 0-3.42-.091-3.42-4.29v-3.06c0-3.06 1.351-3.93 3.481-3.93 2.144 0 2.971 1.11 2.835 3.21z" mask="url(#b)"></path><path d="m172.5074 2.3521h-.031l-1.695 5.775h3.465zm-.841-1.275h1.755l3.525 10.83h-1.544l-.781-2.58h-4.184l-.811 2.58h-1.394z" mask="url(#b)"></path><path d="m178.8335 11.9067v-10.83h1.38v9.63h3.975v1.2z" mask="url(#b)"></path><path d="m193.1871 3.1172c0-.75-.449-1.215-1.184-1.215-.69 0-1.201.495-1.201 1.215 0 .75.781 1.38 1.186 1.95.51-.45 1.199-1.11 1.199-1.95zm-1.604 3.405c-.945.645-1.755 1.215-1.755 2.475 0 1.17.929 1.979 2.22 1.979.975 0 1.65-.284 2.204-1.079zm3.405 4.275c-.825 1.005-1.74 1.335-3.016 1.335-1.949 0-3.555-1.005-3.555-3.105 0-1.785 1.021-2.445 2.401-3.3-.63-.72-1.425-1.725-1.425-2.73 0-1.575 1.319-2.145 2.669-2.145 1.381 0 2.535.66 2.535 2.19 0 1.14-.944 2.145-1.814 2.88l2.115 2.685c.209-.705.209-1.455.209-3.075h1.23c0 2.325-.24 3.33-.66 4.05l1.74 2.325h-1.56z" mask="url(#b)"></path><path d="m113.3453 18.062c.015-.615-.03-1.23-.315-1.575s-.93-.465-1.215-.465c-1.14 0-1.59.69-1.635.84-.045.12-.315.39-.315 2.25v2.895c0 2.655.87 2.97 1.935 2.97.42 0 1.695-.15 1.71-2.265h1.425c.06 3.42-2.355 3.42-3.06 3.42-1.35 0-3.42-.091-3.42-4.29v-3.06c0-3.06 1.35-3.93 3.48-3.93 2.145 0 2.97 1.11 2.835 3.21z" mask="url(#b)"></path><path d="m122.4532 22.0068v-3.66c0-2.265-1.56-2.34-1.995-2.34s-1.995.075-1.995 2.34v3.66c0 2.37.69 2.97 1.995 2.97s1.995-.6 1.995-2.97m-5.4-.06v-3.555c0-2.16 1.11-3.54 3.405-3.54s3.405 1.38 3.405 3.54v3.555c0 3-1.11 4.185-3.405 4.185s-3.405-1.185-3.405-4.185" mask="url(#b)"></path><path d="m127.5787 25.9067h-1.29v-10.83h2.235l2.73 9.09h.03l2.76-9.09h2.28v10.83h-1.38v-9.629h-.031l-3.029 9.629h-1.306l-2.969-9.629h-.03z" mask="url(#b)"></path><path d="m140.2955 19.937h1.515c.57 0 1.92-.15 1.92-1.845 0-1.65-1.23-1.815-1.53-1.815h-1.905zm-1.38 5.97v-10.83h3.21c1.454 0 3.015.54 3.015 3.09 0 2.46-1.92 2.97-3.03 2.97h-1.815v4.77z" mask="url(#b)"></path><path d="m147.2437 15.0771h1.38v6.93c0 2.37.72 2.969 2.024 2.969 1.306 0 2.026-.599 2.026-2.969v-6.93h1.38v6.87c0 3-1.111 4.185-3.406 4.185s-3.404-1.185-3.404-4.185z" mask="url(#b)"></path><path d="m162.9898 15.0771v1.2h-2.85v9.63h-1.379v-9.63h-2.85v-1.2z" mask="url(#b)"></path><path d="m164.8628 25.9067v-10.83h5.58v1.201h-4.201v3.479h3.9v1.2h-3.9v3.75h4.291v1.2z" mask="url(#b)"></path><path d="m173.9703 19.7271h2.07c.991 0 1.47-.855 1.47-1.8 0-.78-.39-1.65-1.455-1.65h-2.085zm0 1.2v4.98h-1.38v-10.83h3.735c1.92 0 2.594 1.35 2.594 2.7 0 1.275-.705 2.25-1.979 2.475v.03c1.245.195 1.694.615 1.77 2.79.015.465.164 2.16.375 2.835h-1.44c-.39-.75-.3-2.16-.42-3.6-.105-1.32-1.17-1.38-1.635-1.38z" mask="url(#b)"></path><path d="m184.2906 25.9067v-10.83h5.58v1.201h-4.201v3.479h3.9v1.2h-3.9v3.75h4.291v1.2z" mask="url(#b)"></path><path d="m199.4957 15.0771v10.83h-1.891l-4.274-9.39h-.03v9.39h-1.23v-10.83h1.95l4.215 9.27h.03v-9.27z" mask="url(#b)"></path><path d="m207.231 17.9722c0-1.275-.524-1.965-1.92-1.965-.434 0-1.995.075-1.995 2.34v3.66c0 2.37.689 2.969 1.995 2.969.989 0 1.649-.27 1.935-.48v-3.239h-1.994v-1.2h3.375v5.265c-.886.48-1.92.81-3.316.81-2.295 0-3.405-1.185-3.405-4.185v-3.555c0-2.16 1.11-3.54 3.405-3.54 2.34 0 3.45.855 3.36 3.12z" mask="url(#b)"></path><path d="m211.222 25.907h1.381v-10.83h-1.381z" mask="url(#b)"></path><path d="m222.6148 15.0771v10.83h-1.891l-4.274-9.39h-.03v9.39h-1.23v-10.83h1.95l4.215 9.27h.03v-9.27z" mask="url(#b)"></path><path d="m225.1392 25.9067v-10.83h5.58v1.201h-4.2v3.479h3.9v1.2h-3.9v3.75h4.29v1.2z" mask="url(#b)"></path><path d="m232.8824 25.9067v-10.83h5.58v1.201h-4.2v3.479h3.899v1.2h-3.899v3.75h4.29v1.2z" mask="url(#b)"></path><path d="m241.9898 19.7271h2.07c.991 0 1.471-.855 1.471-1.8 0-.78-.391-1.65-1.455-1.65h-2.086zm0 1.2v4.98h-1.379v-10.83h3.734c1.92 0 2.595 1.35 2.595 2.7 0 1.275-.705 2.25-1.979 2.475v.03c1.244.195 1.694.615 1.769 2.79.016.465.165 2.16.375 2.835h-1.439c-.391-.75-.301-2.16-.42-3.6-.106-1.32-1.17-1.38-1.635-1.38z" mask="url(#b)"></path><path d="m249.29 25.907h1.381v-10.83h-1.381z" mask="url(#b)"></path><path d="m260.6832 15.0771v10.83h-1.891l-4.274-9.39h-.03v9.39h-1.23v-10.83h1.95l4.215 9.27h.03v-9.27z" mask="url(#b)"></path><path d="m268.4185 17.9722c0-1.275-.524-1.965-1.92-1.965-.434 0-1.995.075-1.995 2.34v3.66c0 2.37.689 2.969 1.995 2.969.989 0 1.649-.27 1.935-.48v-3.239h-1.994v-1.2h3.375v5.265c-.886.48-1.92.81-3.316.81-2.295 0-3.405-1.185-3.405-4.185v-3.555c0-2.16 1.11-3.54 3.405-3.54 2.34 0 3.45.855 3.36 3.12z" mask="url(#b)"></path><path d="m142.1392 33.6602c.01 1.464.01 1.663.777 1.68v.354h-2.666v-.354c.686-.054.758-.163.768-.85.008-.264.008-.56.008-.82v-2.311c0-.765-.008-1.037-.035-1.244-.047-.353-.219-.418-.741-.463v-.342l2.891.01c1.574 0 2.07.75 2.07 1.635 0 .617-.379 1.416-1.258 1.685l1.131 1.967c.409.753.625.925 1.141.997v.215c-.137.009-.273.017-.418.017-1.203 0-1.699-.414-2.205-1.49l-.354-.75c-.379-.805-.504-.754-1.109-.766zm0-1.391c.17.036.414.065.596.065.724.004 1.273-.567 1.3-1.078.041-.739-.334-1.381-1.507-1.381-.164 0-.264.008-.389.035zm81.551.612v.343c-.578.034-.578.2-.596 1.412v.478c-.492.308-1.203.75-2.455.75-2.197 0-3.246-1.665-3.246-3.337 0-2.043 1.381-3.373 3.117-3.373 1.09 0 1.717.408 2.236.725l.334-.379.049 1.996-.26.047c-.13-.379-.326-.817-.806-1.299-.213-.207-.619-.475-1.264-.475-1.113 0-2.039.94-2.039 2.776 0 1.467.725 2.723 1.965 2.723.713 0 1.076-.496 1.111-.535.114-.173.141-.325.129-.604-.029-.815-.138-.832-.846-.905v-.343zm-84.516 2.813c0-.461.08-1.22.135-1.655h-.307c-.218 1.142-.859 1.085-1.781 1.085-.85 0-1.019-.227-1.019-.644v-1.783h.685c.785 0 1.012.068 1.012.781h.306v-2.105h-.306c-.063.566-.18.756-1.002.756h-.695v-2.25h.783c1.086 0 1.474.08 1.621.947h.289l-.039-1.516h-4.545v.342c.459.047.658.074.723.375.044.197.05.899.05 1.153v2.244c0 .172-.006.939-.013 1.093-.018.697-.102.763-.76.823v.354zm24.787 0v-.346c.5-.051.69-.068.815-.197.146-.142.146-.304.152-1.003v-1.121l-1.693-2.631c-.463-.687-.471-.705-1.084-.74v-.353h3.32v.353c-.668.018-.967.035-.967.342 0 .172.117.371.281.642l.975 1.598.902-1.59c.163-.318.254-.504.254-.65 0-.307-.261-.315-.707-.342v-.353h2.492v.353c-.642.018-.83.207-1.558 1.399l-.994 1.664v1.33c0 1.157.006 1.248.955 1.299v.346zm-30.254-6.384v.346c-.613.09-.699.26-1.222 1.527l-1.944 4.636h-.343l-1.744-4.708c-.433-1.213-.49-1.355-1.13-1.455v-.346h3.028v.346c-.516.018-.85.035-.85.406 0 .18.045.334.219.868l1.111 3.246 1.301-3.356c.08-.224.19-.515.19-.676 0-.461-.452-.482-.85-.488v-.346zm-22.625 0v.346c-.848.061-.848.09-.858 1.445v1.498c0 .782.016 1.45.426 2.048.327.475.883.535 1.161.535.913 0 1.416-.472 1.635-1.227.179-.594.187-1.715.187-2.457 0-.234 0-.996-.008-1.199-.037-.582-.336-.6-.905-.643v-.346h2.431v.346c-.596-.012-.723.123-.758.76-.01.15-.082 1.924-.09 2.195-.019.485-.047.967-.154 1.428-.434 1.717-2.107 1.809-2.549 1.809-.353 0-1.076-.055-1.673-.453-.949-.642-.959-1.6-.959-2.63v-1.447c-.008-.687-.008-.996-.027-1.158-.054-.398-.252-.477-.732-.504v-.346zm45.987 6.384v-.272c.586-.01.75-.224.75-.73v-4.704h-.795c-.721 0-1.199-.029-1.256 1.111h-.332l.053-1.789h5.796l.053 1.789h-.336c-.052-1.14-.531-1.111-1.254-1.111h-.793v4.704c0 .506.163.72.748.73v.272zm-10.493-1.989.327-.035c.351 1.04.937 1.598 1.896 1.598.678 0 1.276-.289 1.276-.977 0-.725-.696-1.01-1.004-1.137-.254-.101-.524-.183-.778-.283-.523-.19-1.509-.594-1.509-1.834 0-1.191.939-1.863 2.033-1.863.426 0 .922.091 1.467.437l.386-.279.209 1.894-.318.063c-.109-.416-.192-.608-.442-.943-.306-.399-.74-.584-1.248-.584-.677 0-1.074.326-1.074.834 0 .757.75 1.013 1.463 1.244.363.121.66.22.92.371.506.301.924.859.924 1.627 0 1.106-.906 2.018-2.25 2.018-.867 0-1.403-.344-1.653-.508l-.531-.384zm-30.611 1.989v-.346c.526-.025.723-.035.797-.396.09-.427.117-4.212.125-4.872-.353-.324-.498-.389-.922-.424v-.346h1.916c.533.76.651.932 1.592 2.098l1.779 2.205v-2.855c-.008-1.012-.035-1.067-1.049-1.102v-.346h2.512v.346c-.695.006-.756.152-.763 1.191l-.094 4.929h-.377l-.571-.715c-.291-.363-.578-.723-.869-1.077l-2.519-3.111v3.31c0 1.031.07 1.068 1.049 1.165v.346zm35.887 0v-.346c.621-.08.75-.15.756-.823v-.812-2.584c-.006-1.33-.006-1.367-.756-1.473v-.346h2.646v.346c-.752.072-.752.106-.752 1.473v2.576c0 .225.01.942.03 1.13.045.388.224.478.722.513v.346zm-28.117 0v-.346c.626-.08.751-.15.76-.823v-.812-2.584c-.009-1.33-.009-1.367-.76-1.473v-.346h2.651v.346c-.749.072-.749.106-.749 1.473v2.576c0 .225.007.942.027 1.13.044.388.226.478.722.513v.346zm54.857-.346v.352h2.643v-.352c-.66-.062-.742-.125-.762-.823l.006-1.82h.707c.713 0 1.092.068 1.137.781h.308v-2.105h-.308c-.036.687-.225.756-1.002.756h-.842v-2.211c.228-.03.353-.036.76-.036 1.25 0 1.65-.005 1.82.993h.314l-.101-1.563h-4.68v.342c.459.047.66.074.725.371.043.199.052.902.052 1.156v2.241c0 .173-.011.943-.021 1.095-.018.698-.096.761-.756.823zm-3.83-.072c.363-.01.871-.189 1.266-.79.449-.691.543-1.328.517-2.16-.027-.82-.256-1.527-.724-2.029-.205-.219-.608-.541-1.143-.526-.531 0-.926.336-1.125.561-.453.514-.66 1.228-.66 2.051 0 .832.111 1.464.582 2.142.414.589.926.751 1.287.751zm3.19-2.774c0 2.208-1.504 3.364-3.196 3.364-1.857 0-3.306-1.341-3.306-3.374 0-1.742 1.169-3.318 3.218-3.309 1.934.008 3.284 1.381 3.284 3.319zm53.24 3.198v-.342c.525-.03.724-.035.797-.398.089-.425.117-4.21.125-4.872-.354-.326-.496-.391-.922-.426v-.342h1.918c.533.76.648.93 1.59 2.096l1.781 2.205v-2.857c-.008-1.01-.035-1.067-1.049-1.102v-.342h2.516v.342c-.7.01-.76.154-.768 1.193l-.092 4.927h-.383l-.568-.713c-.287-.359-.578-.725-.867-1.077l-2.522-3.109v3.306c0 1.034.071 1.072 1.049 1.169v.342zm-39.436 0v-.342c.803-.055.803-.09.813-1.274v-3.209l-2.233 4.907h-.56l-2.051-4.974-.047 3.752c0 .626.074.743.752.798v.342h-2.215v-.342c.514-.03.717-.097.748-.531.02-.172.047-.71.055-1.062l.092-2.673c.008-.209.008-.516.008-.743 0-.63-.125-.677-.696-.687v-.342h2.008l1.988 4.846 2.188-4.846h1.943v.377c-.76.045-.767.129-.76 1.121v2.631c0 .438.008.977.036 1.304.037.47.218.558.724.605v.342zm4.02 0v-.342c.625-.082.75-.154.759-.823v-.814-2.586c-.009-1.327-.009-1.364-.759-1.473v-.342h2.648v.342c-.75.074-.75.109-.75 1.473v2.578c0 .226.012.942.029 1.13.043.388.225.48.721.515v.342zm18.179 0v-.342c.625-.082.75-.154.76-.823v-.814-2.586c-.01-1.327-.01-1.364-.76-1.473v-.342h2.655v.342c-.75.074-.75.109-.75 1.473v2.578c0 .226.008.942.025 1.13.045.388.227.48.725.515v.342zm-7.875 0v-.342c.725-.063.733-.219.733-.833.01-.224.01-.453.01-.678v-2.675c0-.416 0-.832-.03-1.032-.035-.378-.216-.431-.713-.478v-.342h2.735v.342c-.535.057-.735.074-.797.426-.047.205-.053.676-.053 1.058v.879c.549.03.934.043 1.469.043.541 0 .969-.013 1.514-.043v-1.07c-.01-1.164-.018-1.213-.887-1.293v-.342h2.767v.342c-.742.092-.742.1-.742 1.312v2.694c0 .25.008 1.057.037 1.247.045.334.235.396.705.443v.342h-2.767v-.342c.641-.072.812-.09.869-.531.018-.184.018-.427.018-.888v-1.172c-.506-.017-.928-.044-1.454-.044-.55 0-.98.017-1.529.044v1.172c.006 1.329.026 1.329.85 1.419v.342zm-1.074-1.417c-.283.46-.961 1.59-2.722 1.59-1.922 0-3.166-1.418-3.166-3.281 0-1.727 1.054-3.426 3.209-3.426 1.134 0 1.736.476 2.107.767l.434-.396.035 1.935-.284.053c-.111-.371-.273-.67-.689-1.121-.195-.207-.666-.625-1.334-.625-1.154 0-2.062.942-2.062 2.598 0 1.398.748 2.72 2.222 2.72 1.115 0 1.537-.625 1.869-1.103zm22.215-3.703-.937 2.644h1.835zm.574 5.12v-.342c.434-.03.768-.063.768-.416 0-.127-.039-.261-.074-.382l-.19-.648h-2.248l-.199.549c-.043.138-.082.264-.082.399 0 .451.478.48.867.498v.342h-2.629v-.342c.67-.03.887-.162 1.131-.833l1.727-4.734-.1-.154c.738-.243.947-.354 1.266-.588.125.431.142.488.285.941l1.414 4.336c.252.771.371.96 1.045 1.032v.342z" mask="url(#b)"></path></g></g></g></svg> 